<svg xmlns="http://www.w3.org/2000/svg" width="1600" height="900" viewBox="0 0 1600 900">
<rect x="0" y="0" width="1600" height="64" rx="0" fill="#0b1220" stroke="#1f2937" stroke-width="2"/>
<text x="20" y="40" font-family="Inter, system-ui, Arial" font-size="22" fill="#e5e7eb" font-weight="700">Chat — #apollo-website</text>
<rect x="0" y="64" width="240" height="836" rx="0" fill="#0b1220" stroke="#1f2937" stroke-width="2"/>
<text x="24" y="100" font-family="Inter, system-ui, Arial" font-size="18" fill="#94a3b8" font-weight="400">Home</text>
<text x="24" y="140" font-family="Inter, system-ui, Arial" font-size="18" fill="#94a3b8" font-weight="400">Timesheet</text>
<text x="24" y="180" font-family="Inter, system-ui, Arial" font-size="18" fill="#94a3b8" font-weight="400">Projects</text>
<text x="24" y="220" font-family="Inter, system-ui, Arial" font-size="18" fill="#94a3b8" font-weight="400">Tasks</text>
<text x="24" y="260" font-family="Inter, system-ui, Arial" font-size="18" fill="#94a3b8" font-weight="400">Schedule</text>
<text x="24" y="300" font-family="Inter, system-ui, Arial" font-size="18" fill="#94a3b8" font-weight="400">Approvals</text>
<text x="24" y="340" font-family="Inter, system-ui, Arial" font-size="18" fill="#94a3b8" font-weight="400">Reports</text>
<text x="24" y="380" font-family="Inter, system-ui, Arial" font-size="18" fill="#94a3b8" font-weight="400">Chat</text>
<text x="24" y="420" font-family="Inter, system-ui, Arial" font-size="18" fill="#94a3b8" font-weight="400">Admin</text>
<rect x="260" y="100" width="960" height="760" rx="12" fill="#0b1220" stroke="#1f2937" stroke-width="2"/>
<rect x="260" y="100" width="960" height="46" rx="12" fill="#111827" stroke="#1f2937" stroke-width="2"/>
<text x="272" y="128" font-family="Inter, system-ui, Arial" font-size="18" fill="#e5e7eb" font-weight="700">Messages</text>
<rect x="280" y="160" width="940" height="90" rx="8" fill="#0f172a" stroke="#1f2937" stroke-width="1"/>
<text x="296" y="190" font-family="Inter, system-ui, Arial" font-size="14" fill="#e5e7eb" font-weight="400">10:14 Mia: Can someone summarize the design feedback from yesterday's meeting?</text>
<rect x="280" y="270" width="940" height="90" rx="8" fill="#0f172a" stroke="#1f2937" stroke-width="1"/>
<text x="296" y="300" font-family="Inter, system-ui, Arial" font-size="14" fill="#e5e7eb" font-weight="400">10:15 @ai: Summary → 3 issues: hero contrast, CTA microcopy, mobile spacing. Actionables: (#124) revise hero copy, (#131) adjust CTA, (#128) add QA.</text>
<rect x="280" y="380" width="940" height="90" rx="8" fill="#0f172a" stroke="#1f2937" stroke-width="1"/>
<text x="296" y="410" font-family="Inter, system-ui, Arial" font-size="14" fill="#e5e7eb" font-weight="400">10:16 Liam: /task create "CTA contrast update" P1 4h assign=@Liam due=Fri</text>
<rect x="280" y="490" width="940" height="90" rx="8" fill="#0f172a" stroke="#1f2937" stroke-width="1"/>
<text x="296" y="520" font-family="Inter, system-ui, Arial" font-size="14" fill="#e5e7eb" font-weight="400">10:16 System: Task #142 created and linked to thread.</text>
<rect x="280" y="600" width="940" height="90" rx="8" fill="#0f172a" stroke="#1f2937" stroke-width="1"/>
<text x="296" y="630" font-family="Inter, system-ui, Arial" font-size="14" fill="#e5e7eb" font-weight="400">10:17 @ai: Estimated impact: +0.6% conversion; suggest A/B on CTA wording.</text>
<rect x="280" y="710" width="940" height="90" rx="8" fill="#0f172a" stroke="#1f2937" stroke-width="1"/>
<text x="296" y="740" font-family="Inter, system-ui, Arial" font-size="14" fill="#e5e7eb" font-weight="400">10:18 Ava: /time start #131</text>
<rect x="1220" y="100" width="340" height="400" rx="12" fill="#0b1220" stroke="#1f2937" stroke-width="2"/>
<rect x="1220" y="100" width="340" height="46" rx="12" fill="#111827" stroke="#1f2937" stroke-width="2"/>
<text x="1232" y="128" font-family="Inter, system-ui, Arial" font-size="18" fill="#e5e7eb" font-weight="700">Thread Summary</text>
<rect x="1220" y="520" width="340" height="340" rx="12" fill="#0b1220" stroke="#1f2937" stroke-width="2"/>
<rect x="1220" y="520" width="340" height="46" rx="12" fill="#111827" stroke="#1f2937" stroke-width="2"/>
<text x="1232" y="548" font-family="Inter, system-ui, Arial" font-size="18" fill="#e5e7eb" font-weight="700">Suggested Actions</text>
<rect x="260" y="770" width="1300" height="80" rx="12" fill="#0b1220" stroke="#1f2937" stroke-width="2"/>
<rect x="260" y="770" width="1300" height="46" rx="12" fill="#111827" stroke="#1f2937" stroke-width="2"/>
<text x="272" y="798" font-family="Inter, system-ui, Arial" font-size="18" fill="#e5e7eb" font-weight="700">Compose</text>
<text x="300" y="820" font-family="Inter, system-ui, Arial" font-size="14" fill="#94a3b8" font-weight="400">Type /commands  @mention  Attach ▢    Privacy: Internal-only</text>
</svg>