<svg xmlns="http://www.w3.org/2000/svg" width="1600" height="900" viewBox="0 0 1600 900">
<rect x="0" y="0" width="1600" height="64" rx="0" fill="#0b1220" stroke="#1f2937" stroke-width="2"/>
<text x="20" y="40" font-family="Inter, system-ui, Arial" font-size="22" fill="#e5e7eb" font-weight="700">Planning — Timeline</text>
<rect x="0" y="64" width="240" height="836" rx="0" fill="#0b1220" stroke="#1f2937" stroke-width="2"/>
<text x="24" y="100" font-family="Inter, system-ui, Arial" font-size="18" fill="#94a3b8" font-weight="400">Home</text>
<text x="24" y="140" font-family="Inter, system-ui, Arial" font-size="18" fill="#94a3b8" font-weight="400">Timesheet</text>
<text x="24" y="180" font-family="Inter, system-ui, Arial" font-size="18" fill="#94a3b8" font-weight="400">Projects</text>
<text x="24" y="220" font-family="Inter, system-ui, Arial" font-size="18" fill="#94a3b8" font-weight="400">Tasks</text>
<text x="24" y="260" font-family="Inter, system-ui, Arial" font-size="18" fill="#94a3b8" font-weight="400">Schedule</text>
<text x="24" y="300" font-family="Inter, system-ui, Arial" font-size="18" fill="#94a3b8" font-weight="400">Approvals</text>
<text x="24" y="340" font-family="Inter, system-ui, Arial" font-size="18" fill="#94a3b8" font-weight="400">Reports</text>
<text x="24" y="380" font-family="Inter, system-ui, Arial" font-size="18" fill="#94a3b8" font-weight="400">Chat</text>
<text x="24" y="420" font-family="Inter, system-ui, Arial" font-size="18" fill="#94a3b8" font-weight="400">Admin</text>
<rect x="260" y="100" width="1300" height="80" rx="12" fill="#0b1220" stroke="#1f2937" stroke-width="2"/>
<rect x="260" y="100" width="1300" height="46" rx="12" fill="#111827" stroke="#1f2937" stroke-width="2"/>
<text x="272" y="128" font-family="Inter, system-ui, Arial" font-size="18" fill="#e5e7eb" font-weight="700">Capacity & Budget</text>
<rect x="300" y="140" width="900" height="16" rx="12" fill="#1f2937" stroke="#1f2937" stroke-width="2"/>
<text x="1220" y="154" font-family="Inter, system-ui, Arial" font-size="14" fill="#94a3b8" font-weight="400">Capacity 82%</text>
<rect x="300" y="170" width="700" height="16" rx="12" fill="#1f2937" stroke="#1f2937" stroke-width="2"/>
<text x="1020" y="184" font-family="Inter, system-ui, Arial" font-size="14" fill="#94a3b8" font-weight="400">Budget 68%</text>
<rect x="260" y="200" width="1300" height="660" rx="12" fill="#0b1220" stroke="#1f2937" stroke-width="2"/>
<rect x="260" y="200" width="1300" height="46" rx="12" fill="#111827" stroke="#1f2937" stroke-width="2"/>
<text x="272" y="228" font-family="Inter, system-ui, Arial" font-size="18" fill="#e5e7eb" font-weight="700">W35 — W36</text>
<line x1="280" y1="260" x2="1540" y2="260" stroke="#1f2937" stroke-width="1"/>
<text x="280" y="250" font-family="Inter, system-ui, Arial" font-size="14" fill="#94a3b8" font-weight="400">Task #130</text>
<rect x="500" y="240" width="260" height="40" rx="12" fill="#0f172a" stroke="#1f2937" stroke-width="2"/>
<line x1="280" y1="340" x2="1540" y2="340" stroke="#1f2937" stroke-width="1"/>
<text x="280" y="330" font-family="Inter, system-ui, Arial" font-size="14" fill="#94a3b8" font-weight="400">Task #131</text>
<rect x="540" y="320" width="260" height="40" rx="12" fill="#0f172a" stroke="#1f2937" stroke-width="2"/>
<line x1="280" y1="420" x2="1540" y2="420" stroke="#1f2937" stroke-width="1"/>
<text x="280" y="410" font-family="Inter, system-ui, Arial" font-size="14" fill="#94a3b8" font-weight="400">Task #132</text>
<rect x="580" y="400" width="260" height="40" rx="12" fill="#0f172a" stroke="#1f2937" stroke-width="2"/>
<line x1="280" y1="500" x2="1540" y2="500" stroke="#1f2937" stroke-width="1"/>
<text x="280" y="490" font-family="Inter, system-ui, Arial" font-size="14" fill="#94a3b8" font-weight="400">Task #133</text>
<rect x="620" y="480" width="260" height="40" rx="12" fill="#0f172a" stroke="#1f2937" stroke-width="2"/>
<line x1="280" y1="580" x2="1540" y2="580" stroke="#1f2937" stroke-width="1"/>
<text x="280" y="570" font-family="Inter, system-ui, Arial" font-size="14" fill="#94a3b8" font-weight="400">Task #134</text>
<rect x="660" y="560" width="260" height="40" rx="12" fill="#0f172a" stroke="#1f2937" stroke-width="2"/>
<line x1="280" y1="660" x2="1540" y2="660" stroke="#1f2937" stroke-width="1"/>
<text x="280" y="650" font-family="Inter, system-ui, Arial" font-size="14" fill="#94a3b8" font-weight="400">Task #135</text>
<rect x="700" y="640" width="260" height="40" rx="12" fill="#0f172a" stroke="#1f2937" stroke-width="2"/>
</svg>