<svg xmlns="http://www.w3.org/2000/svg" width="1600" height="900" viewBox="0 0 1600 900">
<rect x="0" y="0" width="1600" height="64" rx="0" fill="#0b1220" stroke="#1f2937" stroke-width="2"/>
<text x="20" y="40" font-family="Inter, system-ui, Arial" font-size="22" fill="#e5e7eb" font-weight="700">Reports — Insights</text>
<rect x="0" y="64" width="240" height="836" rx="0" fill="#0b1220" stroke="#1f2937" stroke-width="2"/>
<text x="24" y="100" font-family="Inter, system-ui, Arial" font-size="18" fill="#94a3b8" font-weight="400">Home</text>
<text x="24" y="140" font-family="Inter, system-ui, Arial" font-size="18" fill="#94a3b8" font-weight="400">Timesheet</text>
<text x="24" y="180" font-family="Inter, system-ui, Arial" font-size="18" fill="#94a3b8" font-weight="400">Projects</text>
<text x="24" y="220" font-family="Inter, system-ui, Arial" font-size="18" fill="#94a3b8" font-weight="400">Tasks</text>
<text x="24" y="260" font-family="Inter, system-ui, Arial" font-size="18" fill="#94a3b8" font-weight="400">Schedule</text>
<text x="24" y="300" font-family="Inter, system-ui, Arial" font-size="18" fill="#94a3b8" font-weight="400">Approvals</text>
<text x="24" y="340" font-family="Inter, system-ui, Arial" font-size="18" fill="#94a3b8" font-weight="400">Reports</text>
<text x="24" y="380" font-family="Inter, system-ui, Arial" font-size="18" fill="#94a3b8" font-weight="400">Chat</text>
<text x="24" y="420" font-family="Inter, system-ui, Arial" font-size="18" fill="#94a3b8" font-weight="400">Admin</text>
<rect x="260" y="100" width="406" height="300" rx="12" fill="#0b1220" stroke="#1f2937" stroke-width="2"/>
<rect x="260" y="100" width="406" height="46" rx="12" fill="#111827" stroke="#1f2937" stroke-width="2"/>
<text x="272" y="128" font-family="Inter, system-ui, Arial" font-size="18" fill="#e5e7eb" font-weight="700">Card 1</text>
<text x="280" y="190" font-family="Inter, system-ui, Arial" font-size="14" fill="#94a3b8" font-weight="400">Metric • Trend • Export</text>
<rect x="686" y="100" width="406" height="300" rx="12" fill="#0b1220" stroke="#1f2937" stroke-width="2"/>
<rect x="686" y="100" width="406" height="46" rx="12" fill="#111827" stroke="#1f2937" stroke-width="2"/>
<text x="698" y="128" font-family="Inter, system-ui, Arial" font-size="18" fill="#e5e7eb" font-weight="700">Card 2</text>
<text x="706" y="190" font-family="Inter, system-ui, Arial" font-size="14" fill="#94a3b8" font-weight="400">Metric • Trend • Export</text>
<rect x="1112" y="100" width="406" height="300" rx="12" fill="#0b1220" stroke="#1f2937" stroke-width="2"/>
<rect x="1112" y="100" width="406" height="46" rx="12" fill="#111827" stroke="#1f2937" stroke-width="2"/>
<text x="1124" y="128" font-family="Inter, system-ui, Arial" font-size="18" fill="#e5e7eb" font-weight="700">Card 3</text>
<text x="1132" y="190" font-family="Inter, system-ui, Arial" font-size="14" fill="#94a3b8" font-weight="400">Metric • Trend • Export</text>
<rect x="260" y="440" width="406" height="300" rx="12" fill="#0b1220" stroke="#1f2937" stroke-width="2"/>
<rect x="260" y="440" width="406" height="46" rx="12" fill="#111827" stroke="#1f2937" stroke-width="2"/>
<text x="272" y="468" font-family="Inter, system-ui, Arial" font-size="18" fill="#e5e7eb" font-weight="700">Card 4</text>
<text x="280" y="530" font-family="Inter, system-ui, Arial" font-size="14" fill="#94a3b8" font-weight="400">Metric • Trend • Export</text>
<rect x="686" y="440" width="406" height="300" rx="12" fill="#0b1220" stroke="#1f2937" stroke-width="2"/>
<rect x="686" y="440" width="406" height="46" rx="12" fill="#111827" stroke="#1f2937" stroke-width="2"/>
<text x="698" y="468" font-family="Inter, system-ui, Arial" font-size="18" fill="#e5e7eb" font-weight="700">Card 5</text>
<text x="706" y="530" font-family="Inter, system-ui, Arial" font-size="14" fill="#94a3b8" font-weight="400">Metric • Trend • Export</text>
<rect x="1112" y="440" width="406" height="300" rx="12" fill="#0b1220" stroke="#1f2937" stroke-width="2"/>
<rect x="1112" y="440" width="406" height="46" rx="12" fill="#111827" stroke="#1f2937" stroke-width="2"/>
<text x="1124" y="468" font-family="Inter, system-ui, Arial" font-size="18" fill="#e5e7eb" font-weight="700">Card 6</text>
<text x="1132" y="530" font-family="Inter, system-ui, Arial" font-size="14" fill="#94a3b8" font-weight="400">Metric • Trend • Export</text>
</svg>