<svg xmlns="http://www.w3.org/2000/svg" width="1600" height="900" viewBox="0 0 1600 900">
<rect x="0" y="0" width="1600" height="64" rx="0" fill="#0b1220" stroke="#1f2937" stroke-width="2"/>
<text x="20" y="40" font-family="Inter, system-ui, Arial" font-size="22" fill="#e5e7eb" font-weight="700">Team Heatmap — KPIs by Person</text>
<rect x="0" y="64" width="240" height="836" rx="0" fill="#0b1220" stroke="#1f2937" stroke-width="2"/>
<text x="24" y="100" font-family="Inter, system-ui, Arial" font-size="18" fill="#94a3b8" font-weight="400">Home</text>
<text x="24" y="140" font-family="Inter, system-ui, Arial" font-size="18" fill="#94a3b8" font-weight="400">Timesheet</text>
<text x="24" y="180" font-family="Inter, system-ui, Arial" font-size="18" fill="#94a3b8" font-weight="400">Projects</text>
<text x="24" y="220" font-family="Inter, system-ui, Arial" font-size="18" fill="#94a3b8" font-weight="400">Tasks</text>
<text x="24" y="260" font-family="Inter, system-ui, Arial" font-size="18" fill="#94a3b8" font-weight="400">Schedule</text>
<text x="24" y="300" font-family="Inter, system-ui, Arial" font-size="18" fill="#94a3b8" font-weight="400">Approvals</text>
<text x="24" y="340" font-family="Inter, system-ui, Arial" font-size="18" fill="#94a3b8" font-weight="400">Reports</text>
<text x="24" y="380" font-family="Inter, system-ui, Arial" font-size="18" fill="#94a3b8" font-weight="400">Chat</text>
<text x="24" y="420" font-family="Inter, system-ui, Arial" font-size="18" fill="#94a3b8" font-weight="400">Admin</text>
<rect x="260" y="100" width="1300" height="720" rx="12" fill="#0b1220" stroke="#1f2937" stroke-width="2"/>
<rect x="260" y="100" width="1300" height="46" rx="12" fill="#111827" stroke="#1f2937" stroke-width="2"/>
<text x="272" y="128" font-family="Inter, system-ui, Arial" font-size="18" fill="#e5e7eb" font-weight="700">Heatmap</text>
<rect x="300" y="160" width="64" height="64" rx="8" fill="#0f172a" stroke="#1f2937" stroke-width="1"/>
<rect x="370" y="160" width="64" height="64" rx="8" fill="#0f172a" stroke="#1f2937" stroke-width="1"/>
<rect x="440" y="160" width="64" height="64" rx="8" fill="#0f172a" stroke="#1f2937" stroke-width="1"/>
<rect x="510" y="160" width="64" height="64" rx="8" fill="#0f172a" stroke="#1f2937" stroke-width="1"/>
<rect x="580" y="160" width="64" height="64" rx="8" fill="#0f172a" stroke="#1f2937" stroke-width="1"/>
<rect x="650" y="160" width="64" height="64" rx="8" fill="#0f172a" stroke="#1f2937" stroke-width="1"/>
<rect x="720" y="160" width="64" height="64" rx="8" fill="#0f172a" stroke="#1f2937" stroke-width="1"/>
<rect x="790" y="160" width="64" height="64" rx="8" fill="#0f172a" stroke="#1f2937" stroke-width="1"/>
<rect x="860" y="160" width="64" height="64" rx="8" fill="#0f172a" stroke="#1f2937" stroke-width="1"/>
<rect x="930" y="160" width="64" height="64" rx="8" fill="#0f172a" stroke="#1f2937" stroke-width="1"/>
<rect x="1000" y="160" width="64" height="64" rx="8" fill="#0f172a" stroke="#1f2937" stroke-width="1"/>
<rect x="1070" y="160" width="64" height="64" rx="8" fill="#0f172a" stroke="#1f2937" stroke-width="1"/>
<rect x="300" y="230" width="64" height="64" rx="8" fill="#0f172a" stroke="#1f2937" stroke-width="1"/>
<rect x="370" y="230" width="64" height="64" rx="8" fill="#0f172a" stroke="#1f2937" stroke-width="1"/>
<rect x="440" y="230" width="64" height="64" rx="8" fill="#0f172a" stroke="#1f2937" stroke-width="1"/>
<rect x="510" y="230" width="64" height="64" rx="8" fill="#0f172a" stroke="#1f2937" stroke-width="1"/>
<rect x="580" y="230" width="64" height="64" rx="8" fill="#0f172a" stroke="#1f2937" stroke-width="1"/>
<rect x="650" y="230" width="64" height="64" rx="8" fill="#0f172a" stroke="#1f2937" stroke-width="1"/>
<rect x="720" y="230" width="64" height="64" rx="8" fill="#0f172a" stroke="#1f2937" stroke-width="1"/>
<rect x="790" y="230" width="64" height="64" rx="8" fill="#0f172a" stroke="#1f2937" stroke-width="1"/>
<rect x="860" y="230" width="64" height="64" rx="8" fill="#0f172a" stroke="#1f2937" stroke-width="1"/>
<rect x="930" y="230" width="64" height="64" rx="8" fill="#0f172a" stroke="#1f2937" stroke-width="1"/>
<rect x="1000" y="230" width="64" height="64" rx="8" fill="#0f172a" stroke="#1f2937" stroke-width="1"/>
<rect x="1070" y="230" width="64" height="64" rx="8" fill="#0f172a" stroke="#1f2937" stroke-width="1"/>
<rect x="300" y="300" width="64" height="64" rx="8" fill="#0f172a" stroke="#1f2937" stroke-width="1"/>
<rect x="370" y="300" width="64" height="64" rx="8" fill="#0f172a" stroke="#1f2937" stroke-width="1"/>
<rect x="440" y="300" width="64" height="64" rx="8" fill="#0f172a" stroke="#1f2937" stroke-width="1"/>
<rect x="510" y="300" width="64" height="64" rx="8" fill="#0f172a" stroke="#1f2937" stroke-width="1"/>
<rect x="580" y="300" width="64" height="64" rx="8" fill="#0f172a" stroke="#1f2937" stroke-width="1"/>
<rect x="650" y="300" width="64" height="64" rx="8" fill="#0f172a" stroke="#1f2937" stroke-width="1"/>
<rect x="720" y="300" width="64" height="64" rx="8" fill="#0f172a" stroke="#1f2937" stroke-width="1"/>
<rect x="790" y="300" width="64" height="64" rx="8" fill="#0f172a" stroke="#1f2937" stroke-width="1"/>
<rect x="860" y="300" width="64" height="64" rx="8" fill="#0f172a" stroke="#1f2937" stroke-width="1"/>
<rect x="930" y="300" width="64" height="64" rx="8" fill="#0f172a" stroke="#1f2937" stroke-width="1"/>
<rect x="1000" y="300" width="64" height="64" rx="8" fill="#0f172a" stroke="#1f2937" stroke-width="1"/>
<rect x="1070" y="300" width="64" height="64" rx="8" fill="#0f172a" stroke="#1f2937" stroke-width="1"/>
<rect x="300" y="370" width="64" height="64" rx="8" fill="#0f172a" stroke="#1f2937" stroke-width="1"/>
<rect x="370" y="370" width="64" height="64" rx="8" fill="#0f172a" stroke="#1f2937" stroke-width="1"/>
<rect x="440" y="370" width="64" height="64" rx="8" fill="#0f172a" stroke="#1f2937" stroke-width="1"/>
<rect x="510" y="370" width="64" height="64" rx="8" fill="#0f172a" stroke="#1f2937" stroke-width="1"/>
<rect x="580" y="370" width="64" height="64" rx="8" fill="#0f172a" stroke="#1f2937" stroke-width="1"/>
<rect x="650" y="370" width="64" height="64" rx="8" fill="#0f172a" stroke="#1f2937" stroke-width="1"/>
<rect x="720" y="370" width="64" height="64" rx="8" fill="#0f172a" stroke="#1f2937" stroke-width="1"/>
<rect x="790" y="370" width="64" height="64" rx="8" fill="#0f172a" stroke="#1f2937" stroke-width="1"/>
<rect x="860" y="370" width="64" height="64" rx="8" fill="#0f172a" stroke="#1f2937" stroke-width="1"/>
<rect x="930" y="370" width="64" height="64" rx="8" fill="#0f172a" stroke="#1f2937" stroke-width="1"/>
<rect x="1000" y="370" width="64" height="64" rx="8" fill="#0f172a" stroke="#1f2937" stroke-width="1"/>
<rect x="1070" y="370" width="64" height="64" rx="8" fill="#0f172a" stroke="#1f2937" stroke-width="1"/>
<rect x="300" y="440" width="64" height="64" rx="8" fill="#0f172a" stroke="#1f2937" stroke-width="1"/>
<rect x="370" y="440" width="64" height="64" rx="8" fill="#0f172a" stroke="#1f2937" stroke-width="1"/>
<rect x="440" y="440" width="64" height="64" rx="8" fill="#0f172a" stroke="#1f2937" stroke-width="1"/>
<rect x="510" y="440" width="64" height="64" rx="8" fill="#0f172a" stroke="#1f2937" stroke-width="1"/>
<rect x="580" y="440" width="64" height="64" rx="8" fill="#0f172a" stroke="#1f2937" stroke-width="1"/>
<rect x="650" y="440" width="64" height="64" rx="8" fill="#0f172a" stroke="#1f2937" stroke-width="1"/>
<rect x="720" y="440" width="64" height="64" rx="8" fill="#0f172a" stroke="#1f2937" stroke-width="1"/>
<rect x="790" y="440" width="64" height="64" rx="8" fill="#0f172a" stroke="#1f2937" stroke-width="1"/>
<rect x="860" y="440" width="64" height="64" rx="8" fill="#0f172a" stroke="#1f2937" stroke-width="1"/>
<rect x="930" y="440" width="64" height="64" rx="8" fill="#0f172a" stroke="#1f2937" stroke-width="1"/>
<rect x="1000" y="440" width="64" height="64" rx="8" fill="#0f172a" stroke="#1f2937" stroke-width="1"/>
<rect x="1070" y="440" width="64" height="64" rx="8" fill="#0f172a" stroke="#1f2937" stroke-width="1"/>
<rect x="300" y="510" width="64" height="64" rx="8" fill="#0f172a" stroke="#1f2937" stroke-width="1"/>
<rect x="370" y="510" width="64" height="64" rx="8" fill="#0f172a" stroke="#1f2937" stroke-width="1"/>
<rect x="440" y="510" width="64" height="64" rx="8" fill="#0f172a" stroke="#1f2937" stroke-width="1"/>
<rect x="510" y="510" width="64" height="64" rx="8" fill="#0f172a" stroke="#1f2937" stroke-width="1"/>
<rect x="580" y="510" width="64" height="64" rx="8" fill="#0f172a" stroke="#1f2937" stroke-width="1"/>
<rect x="650" y="510" width="64" height="64" rx="8" fill="#0f172a" stroke="#1f2937" stroke-width="1"/>
<rect x="720" y="510" width="64" height="64" rx="8" fill="#0f172a" stroke="#1f2937" stroke-width="1"/>
<rect x="790" y="510" width="64" height="64" rx="8" fill="#0f172a" stroke="#1f2937" stroke-width="1"/>
<rect x="860" y="510" width="64" height="64" rx="8" fill="#0f172a" stroke="#1f2937" stroke-width="1"/>
<rect x="930" y="510" width="64" height="64" rx="8" fill="#0f172a" stroke="#1f2937" stroke-width="1"/>
<rect x="1000" y="510" width="64" height="64" rx="8" fill="#0f172a" stroke="#1f2937" stroke-width="1"/>
<rect x="1070" y="510" width="64" height="64" rx="8" fill="#0f172a" stroke="#1f2937" stroke-width="1"/>
<rect x="300" y="580" width="64" height="64" rx="8" fill="#0f172a" stroke="#1f2937" stroke-width="1"/>
<rect x="370" y="580" width="64" height="64" rx="8" fill="#0f172a" stroke="#1f2937" stroke-width="1"/>
<rect x="440" y="580" width="64" height="64" rx="8" fill="#0f172a" stroke="#1f2937" stroke-width="1"/>
<rect x="510" y="580" width="64" height="64" rx="8" fill="#0f172a" stroke="#1f2937" stroke-width="1"/>
<rect x="580" y="580" width="64" height="64" rx="8" fill="#0f172a" stroke="#1f2937" stroke-width="1"/>
<rect x="650" y="580" width="64" height="64" rx="8" fill="#0f172a" stroke="#1f2937" stroke-width="1"/>
<rect x="720" y="580" width="64" height="64" rx="8" fill="#0f172a" stroke="#1f2937" stroke-width="1"/>
<rect x="790" y="580" width="64" height="64" rx="8" fill="#0f172a" stroke="#1f2937" stroke-width="1"/>
<rect x="860" y="580" width="64" height="64" rx="8" fill="#0f172a" stroke="#1f2937" stroke-width="1"/>
<rect x="930" y="580" width="64" height="64" rx="8" fill="#0f172a" stroke="#1f2937" stroke-width="1"/>
<rect x="1000" y="580" width="64" height="64" rx="8" fill="#0f172a" stroke="#1f2937" stroke-width="1"/>
<rect x="1070" y="580" width="64" height="64" rx="8" fill="#0f172a" stroke="#1f2937" stroke-width="1"/>
<rect x="300" y="650" width="64" height="64" rx="8" fill="#0f172a" stroke="#1f2937" stroke-width="1"/>
<rect x="370" y="650" width="64" height="64" rx="8" fill="#0f172a" stroke="#1f2937" stroke-width="1"/>
<rect x="440" y="650" width="64" height="64" rx="8" fill="#0f172a" stroke="#1f2937" stroke-width="1"/>
<rect x="510" y="650" width="64" height="64" rx="8" fill="#0f172a" stroke="#1f2937" stroke-width="1"/>
<rect x="580" y="650" width="64" height="64" rx="8" fill="#0f172a" stroke="#1f2937" stroke-width="1"/>
<rect x="650" y="650" width="64" height="64" rx="8" fill="#0f172a" stroke="#1f2937" stroke-width="1"/>
<rect x="720" y="650" width="64" height="64" rx="8" fill="#0f172a" stroke="#1f2937" stroke-width="1"/>
<rect x="790" y="650" width="64" height="64" rx="8" fill="#0f172a" stroke="#1f2937" stroke-width="1"/>
<rect x="860" y="650" width="64" height="64" rx="8" fill="#0f172a" stroke="#1f2937" stroke-width="1"/>
<rect x="930" y="650" width="64" height="64" rx="8" fill="#0f172a" stroke="#1f2937" stroke-width="1"/>
<rect x="1000" y="650" width="64" height="64" rx="8" fill="#0f172a" stroke="#1f2937" stroke-width="1"/>
<rect x="1070" y="650" width="64" height="64" rx="8" fill="#0f172a" stroke="#1f2937" stroke-width="1"/>
</svg>