<svg xmlns="http://www.w3.org/2000/svg" width="1600" height="900" viewBox="0 0 1600 900">
<rect x="0" y="0" width="1600" height="64" rx="0" fill="#0b1220" stroke="#1f2937" stroke-width="2"/>
<text x="20" y="40" font-family="Inter, system-ui, Arial" font-size="22" fill="#e5e7eb" font-weight="700">Timesheet — Week Grid</text>
<rect x="0" y="64" width="240" height="836" rx="0" fill="#0b1220" stroke="#1f2937" stroke-width="2"/>
<text x="24" y="100" font-family="Inter, system-ui, Arial" font-size="18" fill="#94a3b8" font-weight="400">Home</text>
<text x="24" y="140" font-family="Inter, system-ui, Arial" font-size="18" fill="#94a3b8" font-weight="400">Timesheet</text>
<text x="24" y="180" font-family="Inter, system-ui, Arial" font-size="18" fill="#94a3b8" font-weight="400">Projects</text>
<text x="24" y="220" font-family="Inter, system-ui, Arial" font-size="18" fill="#94a3b8" font-weight="400">Tasks</text>
<text x="24" y="260" font-family="Inter, system-ui, Arial" font-size="18" fill="#94a3b8" font-weight="400">Schedule</text>
<text x="24" y="300" font-family="Inter, system-ui, Arial" font-size="18" fill="#94a3b8" font-weight="400">Approvals</text>
<text x="24" y="340" font-family="Inter, system-ui, Arial" font-size="18" fill="#94a3b8" font-weight="400">Reports</text>
<text x="24" y="380" font-family="Inter, system-ui, Arial" font-size="18" fill="#94a3b8" font-weight="400">Chat</text>
<text x="24" y="420" font-family="Inter, system-ui, Arial" font-size="18" fill="#94a3b8" font-weight="400">Admin</text>
<rect x="260" y="100" width="1300" height="660" rx="12" fill="#0b1220" stroke="#1f2937" stroke-width="2"/>
<rect x="260" y="100" width="1300" height="46" rx="12" fill="#111827" stroke="#1f2937" stroke-width="2"/>
<text x="272" y="128" font-family="Inter, system-ui, Arial" font-size="18" fill="#e5e7eb" font-weight="700">Tasks × Days</text>
<line x1="280" y1="160" x2="1520" y2="160" stroke="#1f2937" stroke-width="1"/>
<line x1="280" y1="260" x2="1520" y2="260" stroke="#1f2937" stroke-width="1"/>
<line x1="280" y1="360" x2="1520" y2="360" stroke="#1f2937" stroke-width="1"/>
<line x1="280" y1="460" x2="1520" y2="460" stroke="#1f2937" stroke-width="1"/>
<line x1="280" y1="560" x2="1520" y2="560" stroke="#1f2937" stroke-width="1"/>
<line x1="280" y1="660" x2="1520" y2="660" stroke="#1f2937" stroke-width="1"/>
<line x1="280" y1="760" x2="1520" y2="760" stroke="#1f2937" stroke-width="1"/>
<line x1="280" y1="160" x2="280" y2="760" stroke="#1f2937" stroke-width="1"/>
<line x1="457" y1="160" x2="457" y2="760" stroke="#1f2937" stroke-width="1"/>
<line x1="634" y1="160" x2="634" y2="760" stroke="#1f2937" stroke-width="1"/>
<line x1="811" y1="160" x2="811" y2="760" stroke="#1f2937" stroke-width="1"/>
<line x1="988" y1="160" x2="988" y2="760" stroke="#1f2937" stroke-width="1"/>
<line x1="1165" y1="160" x2="1165" y2="760" stroke="#1f2937" stroke-width="1"/>
<line x1="1342" y1="160" x2="1342" y2="760" stroke="#1f2937" stroke-width="1"/>
<line x1="1519" y1="160" x2="1519" y2="760" stroke="#1f2937" stroke-width="1"/>
<rect x="260" y="780" width="1300" height="80" rx="12" fill="#0b1220" stroke="#1f2937" stroke-width="2"/>
<rect x="260" y="780" width="1300" height="46" rx="12" fill="#111827" stroke="#1f2937" stroke-width="2"/>
<text x="272" y="808" font-family="Inter, system-ui, Arial" font-size="18" fill="#e5e7eb" font-weight="700">Submit • Total 38h • Confetti on success</text>
</svg>