<svg xmlns="http://www.w3.org/2000/svg" width="1600" height="900" viewBox="0 0 1600 900">
<rect x="0" y="0" width="1600" height="64" rx="0" fill="#0b1220" stroke="#1f2937" stroke-width="2"/>
<text x="20" y="40" font-family="Inter, system-ui, Arial" font-size="22" fill="#e5e7eb" font-weight="700">Worker 360 — Overview</text>
<rect x="0" y="64" width="240" height="836" rx="0" fill="#0b1220" stroke="#1f2937" stroke-width="2"/>
<text x="24" y="100" font-family="Inter, system-ui, Arial" font-size="18" fill="#94a3b8" font-weight="400">Home</text>
<text x="24" y="140" font-family="Inter, system-ui, Arial" font-size="18" fill="#94a3b8" font-weight="400">Timesheet</text>
<text x="24" y="180" font-family="Inter, system-ui, Arial" font-size="18" fill="#94a3b8" font-weight="400">Projects</text>
<text x="24" y="220" font-family="Inter, system-ui, Arial" font-size="18" fill="#94a3b8" font-weight="400">Tasks</text>
<text x="24" y="260" font-family="Inter, system-ui, Arial" font-size="18" fill="#94a3b8" font-weight="400">Schedule</text>
<text x="24" y="300" font-family="Inter, system-ui, Arial" font-size="18" fill="#94a3b8" font-weight="400">Approvals</text>
<text x="24" y="340" font-family="Inter, system-ui, Arial" font-size="18" fill="#94a3b8" font-weight="400">Reports</text>
<text x="24" y="380" font-family="Inter, system-ui, Arial" font-size="18" fill="#94a3b8" font-weight="400">Chat</text>
<text x="24" y="420" font-family="Inter, system-ui, Arial" font-size="18" fill="#94a3b8" font-weight="400">Admin</text>
<rect x="260" y="100" width="1300" height="160" rx="12" fill="#0b1220" stroke="#1f2937" stroke-width="2"/>
<rect x="260" y="100" width="1300" height="46" rx="12" fill="#111827" stroke="#1f2937" stroke-width="2"/>
<text x="272" y="128" font-family="Inter, system-ui, Arial" font-size="18" fill="#e5e7eb" font-weight="700">Trends (Predictability • Focus • Adherence)</text>
<rect x="260" y="280" width="720" height="320" rx="12" fill="#0b1220" stroke="#1f2937" stroke-width="2"/>
<rect x="260" y="280" width="720" height="46" rx="12" fill="#111827" stroke="#1f2937" stroke-width="2"/>
<text x="272" y="308" font-family="Inter, system-ui, Arial" font-size="18" fill="#e5e7eb" font-weight="700">Cohort Comparison</text>
<rect x="1000" y="280" width="560" height="320" rx="12" fill="#0b1220" stroke="#1f2937" stroke-width="2"/>
<rect x="1000" y="280" width="560" height="46" rx="12" fill="#111827" stroke="#1f2937" stroke-width="2"/>
<text x="1012" y="308" font-family="Inter, system-ui, Arial" font-size="18" fill="#e5e7eb" font-weight="700">Coaching Tip</text>
<rect x="260" y="620" width="1300" height="200" rx="12" fill="#0b1220" stroke="#1f2937" stroke-width="2"/>
<rect x="260" y="620" width="1300" height="46" rx="12" fill="#111827" stroke="#1f2937" stroke-width="2"/>
<text x="272" y="648" font-family="Inter, system-ui, Arial" font-size="18" fill="#e5e7eb" font-weight="700">Notes / Context</text>
</svg>